<svg version="1.1" id="Layer_1" xmlns="http://www.w3.org/2000/svg" xmlns:xlink="http://www.w3.org/1999/xlink" x="0px" y="0px"
	 width="100%" viewBox="0 0 224 256" enable-background="new 0 0 224 256" xml:space="preserve">
<path fill="#0c4a6e" opacity="1.000000" stroke="none" 
	d="
M87.343292,196.646271 
	C77.564125,194.183563 68.250237,193.709091 58.943130,197.049881 
	C52.467991,199.374130 47.414181,203.474945 43.489765,209.189789 
	C37.573891,200.687729 42.231659,187.479187 55.081238,175.526215 
	C51.739941,173.508759 48.763851,177.304108 45.696014,176.029724 
	C45.647552,165.520386 56.553352,158.242996 79.914680,153.256287 
	C78.828186,147.781998 77.278801,142.341125 76.729103,136.801086 
	C74.188622,111.197464 82.590576,90.320045 104.259651,75.598557 
	C107.123528,73.652893 108.706879,71.774239 108.902542,68.135590 
	C109.172806,63.109512 111.139946,58.506733 114.924744,54.221745 
	C119.026962,58.311527 120.197418,64.967033 126.622360,66.717873 
	C129.715073,63.440544 129.511536,57.627224 134.946899,55.884865 
	C137.571014,59.495354 138.302231,63.845436 140.060486,67.710289 
	C142.144653,72.291557 144.378647,76.604065 148.105515,80.176674 
	C153.298141,85.154388 156.536270,91.242332 157.122437,98.601250 
	C157.446350,102.667885 160.466476,104.927086 163.434601,107.138977 
	C165.171677,108.433472 167.325058,109.678513 166.598251,112.260513 
	C165.805267,115.077614 163.167114,115.113899 160.833298,115.131310 
	C154.615738,115.177727 149.729904,112.031876 145.161514,108.278519 
	C140.402328,104.368423 136.486496,99.515228 131.388031,95.973297 
	C121.096146,88.823463 110.612114,89.705872 102.101929,98.578682 
	C103.812920,99.785454 106.487854,98.507965 107.938904,101.090012 
	C104.683022,103.995293 100.070610,105.034790 97.117004,108.503532 
	C94.288818,111.824959 91.821983,115.238701 90.707115,119.607063 
	C92.569252,120.111664 93.764435,117.732941 95.585831,119.009926 
	C96.614662,120.758827 94.973495,121.656212 94.113686,122.695381 
	C87.378204,130.835907 85.367676,140.433075 85.228920,150.671936 
	C85.192062,153.391617 86.063499,155.080765 88.858887,155.735428 
	C96.732071,157.579330 103.699791,161.576385 110.843849,165.149094 
	C116.551460,168.003418 122.395485,170.187302 128.977020,169.968796 
	C140.629517,169.581924 147.567932,160.857361 145.274887,149.382675 
	C143.383209,139.916565 137.072540,133.652969 130.122665,127.752335 
	C128.441986,126.325386 125.979004,125.481285 125.615677,122.968384 
	C126.113983,121.772270 127.040863,121.732590 127.795265,121.942101 
	C144.243561,126.509956 157.409363,135.176651 162.826477,152.223221 
	C168.046249,168.648758 164.819687,183.699829 152.610016,196.049835 
	C139.759705,209.047852 124.342743,209.198883 108.110367,203.530746 
	C101.356819,201.172470 94.755463,198.344193 87.343292,196.646271 
M65.734962,164.186356 
	C63.250565,165.353821 60.766167,166.521286 57.451252,168.079041 
	C63.519554,170.121368 69.521683,170.054749 73.639389,175.753860 
	C62.304874,178.324066 53.091312,182.643616 48.949886,195.110962 
	C65.128090,180.602127 81.870087,187.794556 98.815910,192.183945 
	C97.507408,187.817154 91.521606,186.120514 95.037735,181.588165 
	C93.887886,179.236359 90.740494,179.544678 90.374138,176.771759 
	C92.845818,174.268845 96.551857,177.053894 98.999313,175.110123 
	C99.119156,172.190277 92.512779,171.106125 97.582695,167.596252 
	C87.683250,160.795151 77.365547,159.826126 65.734962,164.186356 
z"/>
</svg>