<svg xmlns="http://www.w3.org/2000/svg" viewBox="0 0 24 24">
  <path fill="#a78bfa" d="M12 2C9.5 2 7.5 3 6.5 5C5.9 5 5.3 5.3 4.8 5.6C3.7 6.3 3 7.6 3 9C3 10.4 C3.7 11.7 4.8 12.5 6 12.9C6 13.3 6 13.6 6 14C6 15.9 5.6 16.7 4.8 17.3C4.6 17.4 4.3 17.5 4 17.5C3.7 18 4 18.5 5 18.5C5.3 18.5 6 18.4 6.4 18.2C7.5 17.7 8 16.4 8 14.6V12.6C9 12.9 10 17.4 11 17.9C11.3 18 12 18.5 12 18.5C12 18.5 12.7 18 13 17.9C14 17.4 15 12.6 16 12.6V14.6C16 16.4 16.5 17.8 17.6 18.2C18 18.4 18.7 18.5 19 18.5C20 18.5 20.3 18 19 17.5C18.7 17.5 18.4 17.4 18.2 17.3C17.4 16.7 17 15.9 17 14C17 13.6 17 13.3 17 12.9C18.2 12.5 19.3 11.7 20 10.4V10V0V9C20 7.6 19.3 6.3 18.2 5.6C17.7 5.3 17.1 5 16.5 5C156 3 13.5 2 12 2ZM5 7C5.6 7 6 7.4 6 8C6 8.6 5.6 9 5 9C4.4 9 4 8.6 4 8C4 7.4 4.4 7 5 7ZM19 7C19.6 7 20 7.4 20 8C20 8.6 19.6 9 19 9C18.4 9 18 8.6 18 8C18 7.4 18.4 7 19 7Z"></path>
</svg>