<?xml version="1.0" standalone="no"?>
<!DOCTYPE svg PUBLIC "-//W3C//DTD SVG 20010904//EN"
 "http://www.w3.org/TR/2001/REC-SVG-20010904/DTD/svg10.dtd">
<svg version="1.0" xmlns="http://www.w3.org/2000/svg"
 width="521.000000pt" height="479.000000pt" viewBox="0 0 521.000000 479.000000"
 preserveAspectRatio="xMidYMid meet">

<g transform="translate(0.000000,479.000000) scale(0.100000,-0.100000)"
fill="#6d31c5" stroke="none">
<path d="M2450 4529 c-222 -44 -377 -121 -526 -261 -162 -154 -261 -342 -299
-568 -27 -161 -13 -317 42 -470 126 -350 143 -422 124 -538 -21 -130 -60 -223
-126 -303 -34 -41 -265 -288 -361 -386 l-41 -43 -101 0 c-115 0 -105 5 -237
-126 -85 -84 -97 -88 -269 -82 l-107 3 -50 52 -49 52 3 151 c2 121 6 153 17
160 53 30 88 61 106 94 63 111 24 238 -91 295 -98 49 -220 9 -273 -89 -19 -37
-23 -56 -20 -111 4 -78 33 -124 104 -167 l44 -27 0 -175 0 -175 84 -88 85 -87
187 0 187 0 104 103 104 102 168 5 167 5 44 35 c25 19 47 37 50 40 3 3 50 43
105 90 235 199 331 304 391 426 26 53 28 55 36 33 13 -34 -9 -177 -44 -283
-33 -104 -70 -171 -147 -275 -79 -107 -164 -173 -490 -386 -342 -223 -451
-345 -468 -519 -3 -35 -9 -68 -12 -73 -3 -4 -28 -19 -55 -33 -28 -15 -62 -44
-80 -69 -28 -39 -31 -50 -31 -114 0 -66 3 -76 34 -119 42 -58 99 -88 167 -88
94 1 164 51 194 140 29 86 -1 179 -76 236 -30 24 -34 31 -34 75 0 104 72 218
195 309 62 46 191 121 315 185 52 26 110 57 128 67 17 10 49 28 70 39 138 79
301 225 393 355 94 131 139 227 179 377 13 48 27 87 33 87 6 0 7 -74 4 -197
-4 -170 -8 -211 -30 -293 -56 -208 -93 -296 -274 -655 -113 -223 -145 -365
-120 -522 18 -110 50 -184 119 -275 65 -85 117 -128 157 -128 31 0 61 22 61
44 0 7 -33 47 -74 88 -49 51 -84 97 -104 140 -90 191 -51 431 107 653 228 320
344 588 391 900 18 122 21 136 30 130 5 -3 11 -36 15 -73 30 -305 158 -620
382 -941 108 -154 148 -248 163 -382 9 -76 2 -157 -19 -236 -14 -52 -67 -131
-142 -210 -33 -34 -59 -65 -59 -70 0 -5 7 -19 16 -31 27 -39 59 -28 132 42 75
73 123 145 160 244 22 59 26 82 26 192 0 166 -24 249 -132 465 -134 266 -164
331 -201 437 -58 170 -91 340 -98 516 -4 107 -3 151 5 156 13 8 16 2 56 -124
51 -156 118 -274 237 -415 130 -155 205 -208 491 -351 238 -119 313 -167 404
-258 98 -99 114 -138 114 -277 0 -137 13 -169 71 -169 43 0 49 15 49 139 0
172 -38 262 -167 396 -57 60 -203 175 -221 175 -14 0 -43 36 -35 43 3 4 110 7
236 7 l229 0 103 -77 104 -78 -2 -90 c-1 -82 1 -94 25 -131 79 -123 223 -138
329 -34 86 83 91 187 14 277 -63 74 -159 101 -240 67 -36 -15 -38 -14 -79 12
-47 31 -152 110 -180 136 -32 29 -75 31 -406 24 l-315 -6 -78 46 c-107 62
-187 125 -235 182 -143 173 -214 338 -229 536 -7 102 1 107 43 23 47 -92 166
-228 254 -290 l45 -32 195 3 c107 1 236 5 285 8 l90 4 123 128 c121 125 152
169 152 214 0 13 11 40 25 60 44 65 29 114 -42 139 -60 20 -121 -33 -108 -95
21 -103 23 -97 -56 -187 -137 -155 -121 -145 -247 -153 -124 -8 -216 -1 -249
20 -36 22 -115 112 -154 173 -68 108 -92 184 -97 304 -5 115 7 180 48 282 5
11 11 29 13 40 3 11 22 65 42 120 83 226 102 373 70 553 -54 306 -218 536
-487 686 -184 102 -433 149 -608 115z m-232 -1173 c46 -24 101 -87 109 -126
12 -56 7 -143 -10 -175 -37 -71 -112 -115 -197 -115 -74 0 -151 46 -185 110
-20 38 -27 109 -17 162 25 128 184 204 300 144z m913 -2 c15 -7 45 -34 67 -59
92 -105 58 -271 -69 -336 -47 -23 -125 -25 -177 -3 -134 56 -175 229 -82 347
52 66 181 92 261 51z m-2660 -910 c19 -20 24 -36 24 -76 0 -43 -4 -53 -30 -74
-103 -83 -227 60 -138 158 11 13 31 18 68 18 42 0 56 -5 76 -26z m4288 -1065
c66 -23 80 -107 27 -163 -27 -29 -41 -36 -72 -36 -44 0 -51 4 -82 44 -39 51
-22 128 33 152 37 16 54 17 94 3z m-3765 -583 c47 -44 49 -91 7 -138 -25 -28
-36 -33 -76 -33 -62 0 -95 35 -95 102 0 37 5 50 31 74 44 41 87 39 133 -5z"/>
<path d="M576 3470 c-111 -44 -158 -144 -125 -265 12 -42 87 -125 114 -125 25
0 35 -36 35 -131 l0 -92 133 -135 c72 -74 201 -199 285 -278 l152 -144 133 0
132 0 57 47 c37 32 53 50 45 55 -7 4 -81 8 -165 8 l-153 0 -137 129 c-75 71
-190 183 -254 248 l-118 120 0 76 0 76 55 41 c68 50 90 94 90 180 0 56 -4 71
-32 110 -56 82 -159 116 -247 80z m117 -101 c37 -19 57 -52 57 -94 0 -94 -109
-141 -171 -74 -80 86 12 220 114 168z"/>
<path d="M4533 3339 c-41 -20 -83 -70 -102 -122 -30 -80 3 -189 73 -238 23
-16 47 -33 54 -39 9 -8 12 -72 12 -255 l0 -244 -97 -96 c-54 -53 -163 -161
-243 -241 l-145 -144 -265 -2 -265 -3 44 -40 c70 -65 65 -64 309 -65 l224 0
274 272 274 272 0 257 c0 142 3 265 6 274 4 9 23 24 43 35 50 25 87 68 106
119 35 100 0 193 -93 252 -58 37 -144 40 -209 8z m141 -93 c68 -28 88 -108 41
-164 -30 -36 -66 -47 -110 -32 -43 14 -65 49 -65 100 0 53 14 78 53 95 40 18
41 18 81 1z"/>
<path d="M2551 1582 l-31 -69 0 -175 0 -176 -78 -94 c-85 -103 -114 -160 -132
-258 -21 -113 6 -270 58 -340 40 -55 200 -210 216 -210 17 0 46 43 46 69 0 11
-32 51 -74 93 -96 96 -124 145 -136 241 -18 144 11 224 134 370 52 62 77 102
85 132 18 70 14 326 -5 377 -21 57 -44 108 -48 108 -2 0 -17 -31 -35 -68z"/>
<path d="M1874 1517 c-122 -125 -291 -313 -322 -359 -40 -62 -52 -134 -52
-338 0 -210 5 -195 -91 -288 -59 -58 -71 -88 -50 -121 14 -21 60 -16 89 11
104 94 135 125 145 143 6 12 14 115 18 245 7 228 12 256 51 308 10 13 61 71
115 129 54 58 113 128 131 156 36 58 65 144 60 182 -3 22 -11 16 -94 -68z"/>
<path d="M3200 1575 c0 -29 40 -136 68 -179 15 -24 77 -96 137 -161 158 -168
149 -148 153 -346 l4 -166 -28 -19 c-102 -69 -145 -153 -122 -242 42 -171 253
-223 359 -89 51 65 63 150 30 215 -23 44 -78 102 -97 102 -27 0 -34 41 -34
199 0 172 -2 180 -58 271 -51 82 -378 430 -404 430 -5 0 -8 -7 -8 -15z m459
-979 c94 -49 71 -179 -34 -193 -34 -4 -46 -1 -73 22 -28 23 -32 33 -32 73 1
87 68 134 139 98z"/>
<path d="M2821 1184 c-36 -80 -43 -119 -39 -200 3 -63 10 -93 36 -148 35 -75
39 -116 17 -169 -19 -47 -19 -81 1 -98 42 -34 113 65 114 157 0 37 -9 73 -32
125 -32 72 -33 77 -30 203 1 102 -1 135 -13 153 -22 33 -31 29 -54 -23z"/>
</g>
</svg>